<svg id="visual" viewBox="0 0 900 600" width="900" height="600" xmlns="http://www.w3.org/2000/svg" xmlns:xlink="http://www.w3.org/1999/xlink" version="1.1"><rect x="0" y="0" width="900" height="600" fill="#002233"></rect><path d="M0 134L21.5 128.8C43 123.7 86 113.3 128.8 104.8C171.7 96.3 214.3 89.7 257.2 97.3C300 105 343 127 385.8 143.3C428.7 159.7 471.3 170.3 514.2 161.5C557 152.7 600 124.3 642.8 122.3C685.7 120.3 728.3 144.7 771.2 147.5C814 150.3 857 131.7 878.5 122.3L900 113L900 0L878.5 0C857 0 814 0 771.2 0C728.3 0 685.7 0 642.8 0C600 0 557 0 514.2 0C471.3 0 428.7 0 385.8 0C343 0 300 0 257.2 0C214.3 0 171.7 0 128.8 0C86 0 43 0 21.5 0L0 0Z" fill="#0066FF" stroke-linecap="round" stroke-linejoin="miter"></path></svg>